<?xml version="1.0" encoding="utf-8"?>
<!-- Generator: Adobe Illustrator 26.0.3, SVG Export Plug-In . SVG Version: 6.00 Build 0)  -->
<svg version="1.1" id="Capa_1" xmlns="http://www.w3.org/2000/svg" xmlns:xlink="http://www.w3.org/1999/xlink" x="0px" y="0px"
	 viewBox="0 0 622 370" style="enable-background:new 0 0 622 370;" xml:space="preserve">
<style type="text/css">
	.st0{fill:#FFFFFF;}
	.st1{fill-rule:evenodd;clip-rule:evenodd;fill:#EB268E;}
	.st2{fill:#EB268E;}
	.st3{fill-rule:evenodd;clip-rule:evenodd;fill:#FFFFFF;}
</style>
<g>
	<path class="st0" d="M530,192.5h-0.2c-0.5,0-1-0.5-1-1.2s0.5-1.2,1-1.2h0.2c47.9-0.2,86.9-39.4,86.9-87.3
		c0-48.1-39.2-87.3-87.3-87.3c-15.6,0-38,4.4-52.9,14.2c-7.6,4.9-14.5,10.6-21.2,16.2c-14.5,11.9-28.3,23.3-47.4,26.7
		c0.1-0.1,0.2-0.2,0.3-0.3c2.5-2.5,3.9-5.8,3.9-9.3v-9.1c0-3.4-1.3-6.6-3.7-9.2l-0.2-0.2c-0.6-0.6-1.3-1.2-2-1.7v-0.2
		c0.7-0.5,1.4-1,2-1.7c2.5-2.5,3.9-5.8,3.9-9.3v-9.1c0-3.3-1.3-6.6-3.7-9.2l-0.2-0.2c-0.6-0.6-1.2-1.1-1.9-1.6V0.2h-16.9v11.4
		c-0.7,0.5-1.4,1-2,1.7c-2.5,2.5-3.9,5.8-3.9,9.3v9.1c0,3.4,1.3,6.6,3.7,9.2l0.2,0.2c0.6,0.6,1.3,1.2,2,1.7v0.2
		c-0.7,0.5-1.4,1-2,1.7c-2.5,2.5-3.9,5.8-3.9,9.3V63c0,3.4,1.3,6.6,3.7,9.2l0.2,0.2c0.5,0.5,1,0.9,1.5,1.3
		c-51.9,0.1-104.4,0.1-156.3,0c0.6-0.4,1.1-0.9,1.6-1.4c2.5-2.5,3.9-5.8,3.9-9.3v-9.1c0-3.3-1.3-6.6-3.7-9.2l-0.2-0.2
		c-0.6-0.6-1.3-1.2-2-1.7v-0.2c0.7-0.5,1.4-1,2-1.7c2.5-2.5,3.9-5.8,3.9-9.3v-9.1c0-3.3-1.3-6.6-3.7-9.2l-0.2-0.2
		c-0.6-0.6-1.2-1.1-1.9-1.6V0.2h-16.9v11.4c-0.7,0.5-1.4,1-2,1.7c-2.5,2.5-3.9,5.8-3.9,9.3v9.1c0,3.4,1.3,6.6,3.7,9.2l0.2,0.2
		c0.6,0.6,1.3,1.2,2,1.7v0.2c-0.7,0.5-1.4,1-2,1.7c-2.5,2.5-3.9,5.8-3.9,9.3V63c0,3.4,1.3,6.6,3.7,9.2l0.2,0.2
		c0.1,0.1,0.1,0.1,0.2,0.2c-19.1-3.4-32.9-14.8-47.3-26.7c-6.7-5.5-13.6-11.2-21.1-16.1c-15.2-9.8-37.7-14.2-53-14.2
		c-23.3,0-45.2,9-61.6,25.5C14.1,57.4,5,79.4,5,102.7c0,47.9,39,87.1,86.9,87.3h0.2c0.5,0,1,0.5,1,1.2s-0.5,1.2-1,1.2h-0.2
		C44,192.6,5,231.8,5,279.7C5,327.8,44.2,367,92.3,367c15.6,0,38-4.4,52.9-14.2c7.6-4.9,14.5-10.6,21.2-16.2
		c17.3-14.2,33.6-27.7,59.2-27.7c57,0.1,114.8,0.1,170.7,0.1c25.6,0,42,13.5,59.3,27.8c6.7,5.5,13.6,11.2,21.1,16.1
		c15.1,9.8,37.4,14.2,52.9,14.2c48.1,0,87.3-39.2,87.3-87.3C616.9,231.9,577.9,192.7,530,192.5z"/>
	<path class="st1" d="M396.3,303c38.3,0,57.4,27.7,83.7,44.9c13.6,8.8,34.4,13.2,49.6,13.2c44.9,0,81.3-36.4,81.3-81.3
		c0-44.8-36.2-81.1-80.9-81.3c-0.1,0-0.3,0-0.2,0c-3.8,0-7-3.2-7-7.2s3.2-7.2,7-7.2c-0.1,0,0.1,0,0.2,0
		c44.7-0.2,80.9-36.5,80.9-81.3c0-44.9-36.4-81.3-81.3-81.3c-15.3,0-36.1,4.3-49.6,13.2c-26.4,17.2-45.4,44.8-83.7,44.9
		c-56.9,0.1-113.7,0.1-170.6,0c-38.3,0-57.4-27.7-83.7-44.9c-13.6-8.8-34.4-13.2-49.6-13.2C47.4,21.4,11,57.8,11,102.7
		c0,44.8,36.2,81.1,80.9,81.3c0.1,0,0.3,0,0.2,0c3.8,0,7,3.2,7,7.2s-3.2,7.2-7,7.2c0.1,0-0.1,0-0.2,0C47.2,198.6,11,234.9,11,279.7
		c0,44.9,36.4,81.3,81.3,81.3c15.3,0,36.1-4.3,49.6-13.2c26.4-17.2,45.4-44.8,83.7-44.9C282.6,303,339.4,303,396.3,303"/>
	<path class="st2" d="M226.4,15.3V0h-4.9v15.3c-1.4,0.3-2.7,0.9-3.8,2c-1.4,1.4-2.1,3.2-2.1,5.1v9.1c0,1.9,0.8,3.7,2.1,5.1
		c1.1,1.1,2.4,1.7,3.8,2v8c-1.4,0.3-2.7,0.9-3.8,2c-1.4,1.4-2.1,3.2-2.1,5.1v9.1c0,1.9,0.8,3.7,2.1,5.1c1.1,1.1,2.4,1.7,3.8,2v13.8
		c0,1.3,1.1,2.4,2.4,2.4s2.4-1.1,2.4-2.4V69.8c1.4-0.3,2.7-0.9,3.8-2c1.4-1.4,2.1-3.2,2.1-5.1v-9.1c0-1.9-0.8-3.7-2.1-5.1
		c-1.1-1.1-2.4-1.7-3.8-2v-8c1.4-0.3,2.7-0.9,3.8-2c1.4-1.4,2.1-3.2,2.1-5.1v-9.1c0-1.9-0.8-3.7-2.1-5.1
		C229.1,16.2,227.8,15.5,226.4,15.3z M226.7,52c0.4,0.4,0.7,1,0.7,1.7v9.1c0,0.6-0.2,1.2-0.7,1.7c-0.1,0.1-0.2,0.2-0.4,0.3v-0.9
		c0-1.3-1.1-2.4-2.4-2.4s-2.4,1.1-2.4,2.4v0.9c-0.1-0.1-0.3-0.2-0.4-0.3c-0.4-0.4-0.7-1-0.7-1.7v-9.1c0-0.6,0.2-1.2,0.7-1.7
		c0.1-0.1,0.2-0.2,0.4-0.3v0.9c0,1.3,1.1,2.4,2.4,2.4s2.4-1.1,2.4-2.4v-0.9C226.5,51.7,226.6,51.8,226.7,52z M227.4,31.5
		c0,0.6-0.2,1.2-0.7,1.7c-0.1,0.1-0.2,0.2-0.4,0.3v-0.7c0-1.3-1.1-2.4-2.4-2.4s-2.4,1.1-2.4,2.4v0.7c-0.1-0.1-0.3-0.2-0.4-0.3
		c-0.4-0.4-0.7-1-0.7-1.7v-9.1c0-0.6,0.2-1.2,0.7-1.7c0.1-0.1,0.2-0.2,0.4-0.3v0.7c0,1.3,1.1,2.4,2.4,2.4s2.4-1.1,2.4-2.4v-0.7
		c0.1,0.1,0.3,0.2,0.4,0.3c0.4,0.4,0.7,1,0.7,1.7V31.5z"/>
	<path class="st2" d="M400.5,15.5V0.2h-4.9v15.3c-1.4,0.3-2.7,0.9-3.8,2c-1.4,1.4-2.1,3.2-2.1,5.1v9.1c0,1.9,0.8,3.7,2.1,5.1
		c1.1,1.1,2.4,1.7,3.8,2v8c-1.4,0.3-2.7,0.9-3.8,2c-1.4,1.4-2.1,3.2-2.1,5.1V63c0,1.9,0.8,3.7,2.1,5.1c1.1,1.1,2.4,1.7,3.8,2v13.8
		c0,1.3,1.1,2.4,2.4,2.4s2.4-1.1,2.4-2.4V70c1.4-0.3,2.7-0.9,3.8-2c1.4-1.4,2.1-3.2,2.1-5.1v-9.1c0-1.9-0.8-3.7-2.1-5.1
		c-1.1-1.1-2.4-1.7-3.8-2v-8c1.4-0.3,2.7-0.9,3.8-2c1.4-1.4,2.1-3.2,2.1-5.1v-9.1c0-1.9-0.8-3.7-2.1-5.1
		C403.2,16.4,401.9,15.7,400.5,15.5z M400.9,52.2c0.4,0.4,0.7,1,0.7,1.7V63c0,0.6-0.2,1.2-0.7,1.7c-0.1,0.1-0.2,0.2-0.4,0.3v-0.9
		c0-1.3-1.1-2.4-2.4-2.4s-2.4,1.1-2.4,2.4V65c-0.1-0.1-0.3-0.2-0.4-0.3c-0.4-0.4-0.7-1-0.7-1.7v-9.1c0-0.6,0.2-1.2,0.7-1.7
		c0.1-0.1,0.2-0.2,0.4-0.3v0.9c0,1.3,1.1,2.4,2.4,2.4s2.4-1.1,2.4-2.4v-0.9C400.6,51.9,400.7,52,400.9,52.2z M401.6,31.7
		c0,0.6-0.2,1.2-0.7,1.7c-0.1,0.1-0.2,0.2-0.4,0.3V33c0-1.3-1.1-2.4-2.4-2.4s-2.4,1.1-2.4,2.4v0.7c-0.1-0.1-0.3-0.2-0.4-0.3
		c-0.4-0.4-0.7-1-0.7-1.7v-9.1c0-0.6,0.2-1.2,0.7-1.7c0.1-0.1,0.2-0.2,0.4-0.3v0.7c0,1.3,1.1,2.4,2.4,2.4s2.4-1.1,2.4-2.4v-0.7
		c0.1,0.1,0.3,0.2,0.4,0.3c0.4,0.4,0.7,1,0.7,1.7V31.7z"/>
	<g>
		<path class="st3" d="M162,193.8c-1.1,1.7-3.1,4.9-3.8,7.4c-1.1,3.2-3.2,1.1-4,0.3c-2-1.9-8-9.6-8.1-15.8c0-2.1,0.8-3.5,1.9-3.5
			c1.3,0,1.6,0.9,2.1,3.4c0.6,2.6,2.7,8.2,10.6,7.2C162.9,192.5,162.9,192.5,162,193.8 M201,221.3c4.8,4.9,23.1,5.2,24.8-9.9
			c1.2-10.1-9.3-22.5-31.4-23.7s-33.1,13.9-34.1,26.2c-0.8,10.6,1.1,18.6,10.9,23.9c2.4,1.3,8.8,4.2,14.7,7.2
			c6.1,3.2,11.5,5.6,10.7,9.4c-0.5,2.8-6.6,4.8-11.5-1.2c-4.8-6.1-16.5-8-22.5-0.5c-2.9,3.6-3.4,10.2-0.2,16.3
			c3.5,6.6,11,12.8,22.2,14.5c9.4,1.5,19-0.2,26.5-3.9c9.8-4.8,16.1-12.9,16.5-22c0.7-16.8-14.7-24.6-27.8-31.8
			c-4-2.2-6.9-3.6-10.3-5.8c-3.4-2.2-2-5.4,1.2-5.9c2.2-0.4,5,0.1,6.3,2.2C197.9,217.3,198.6,218.9,201,221.3z M430.9,187.3
			c5.7,0.8,8.2,2.3,15,1.8c18.7-1.4,28-15.7,29.6-23.9c1.5-7.5-2.6-7.5-4.6-7.2c-1.6,0.3-2,0.2-3.7,0.1
			c-16.6-1.1-23.1-6.6-30.6-13.8c-2.4-2.3-5.6-3.8-8.6-4.7c-7.3-2.4-20.7-2.3-27.6,1.8c-9.4,5.7-17.5,19.7-17.5,19.7
			s-6.6,9.7-6,18.3c0.7,10.3,13.3,14.8,21.8,10.2c9.5-5.2,11.3-21.5,11.8-27c0.2-2.5,0.1-2.1,0.7,0.2c3.3,13.8-3.6,32.8-20.8,32.4
			c-11.6-0.3-17.9-14.5-17.9-14.5l-17.9,5.4c21.6,11.2,19.9,35.8,19.9,35.8V270c0,7.7,6.3,14,14,14c7.7,0,14-6.3,14-14
			c0-8.4-0.3-16.5,0.6-24.9c0.6-5.5,1.7-12.7,3.8-17.1c3.6-7.6,8.9-8.2,12.3-20.4c1.7-6.1,2.3-9.6,2.5-11.8
			C422.1,190.2,423,186.1,430.9,187.3z M242.4,184.2L242.4,184.2h-5.9c-2,0-6.2,0.4-5.8,4.6c0.3,3.7,0.5,3.7,0.6,6.6
			c0,0.4,0,0.9,0,1.5v0.2v4.7v46.1c0,6.1,4.9,11,11,11c6.1,0,11-4.9,11-11v-14.1h13.4v14.1c0,6.1,4.9,11,11,11c6.1,0,11-4.9,11-11
			v-52.7c0-6.1-4.9-11-11-11h-5.8c-2,0-6.2,0.4-5.8,4.6c0.3,3.7,0.5,3.7,0.6,6.6c0,0.4,0,0.9,0,1.5v0.2v4.7v9.8h-13.4v-16.3
			C253.6,189.1,248.5,184.2,242.4,184.2z M330.1,210.8c6,0,10.8,4.8,10.8,10.8c0,6-4.8,10.8-10.8,10.8c-6,0-10.8-4.8-10.8-10.8
			C319.3,215.6,324.2,210.8,330.1,210.8z M330.1,184.2c20.7,0,37.5,16.7,37.5,37.5s-16.7,37.5-37.5,37.5
			c-20.7,0-37.5-16.7-37.5-37.5C292.7,200.9,309.4,184.2,330.1,184.2z"/>
		<path class="st3" d="M261.6,140.9c1.2,0.9,3.5,2.3,5.4,2.5c1.9-0.2,4-1.5,5.2-2.5c1.4-1.2,1.4-1.4-0.4-1.7
			c-2.6-0.5-7.7-0.4-10,0.3C260.2,139.9,260.6,140.1,261.6,140.9 M273.5,143.1l9.2,0.7v-1.1l-9.2-0.2V143.1z M273.5,140.8l9.2-2.5
			v1.1l-9.2,1.9V140.8z M259.5,140.8l-9.2-2.5v1.1l9.2,1.9V140.8z M259.5,143.1l-9.2,0.7v-1.1l9.2-0.2V143.1z M261.1,168v3.3
			c0,4.3-3.6,7.9-7.9,7.9l0,0c-4.3,0-7.9-3.6-7.9-7.9v-38.3c0-4.6,0.1-8.7-0.4-13.4c-0.2-2.2,2.9-2.4,5.4,0.4
			c2.4,2.9,8.5,4.6,10,4.8c0,0,5.6-1.3,11.3,0.1c1.4-0.3,6.9-2,9.4-4.9c2.4-2.9,5.7-2.6,5.4-0.4c-0.7,6.6-0.5,10.5-0.3,16.8
			c0,2.1,0.2,2.9,0.8,4.6c4.1,11.5-5.7,26.9-21,26.9L261.1,168L261.1,168z M359.1,95.6c0-0.8,0.7-1.6,1.6-1.6c0.5,0,2.1,0.6,2.6,0.9
			c7.9,4.1,13.8,11.6,14.1,20.8c0.5,11.9-6.4,24.3-15.5,24.7h-6.7v29.7c0,4.3-3.6,7.9-7.9,7.9l0,0c-4.3,0-7.9-3.6-7.9-7.9v-29.7
			h-5.6c-4.3,0-7.9-3.6-7.9-7.9l0,0c0-4.3,3.6-7.9,7.9-7.9h24c5.9,0,13.6-1.9,14.3-8.9c0.4-4.4-0.9-7.8-2.9-10.7
			c-1.5-2.1-5.5-5.5-7.4-6.7C359.9,97.1,359.1,96.7,359.1,95.6z M305.1,156.5h21c3.8,0,6.8,3.1,6.8,6.8l0,0c0,3.8-3.1,6.8-6.8,6.8
			h-27.9c-3.7,0-6.7-3.1-6.7-6.7v-28.1v-2.8v-0.1c0-0.3,0-0.6,0-0.9c0-1.8-0.2-1.8-0.3-4c-0.2-2.5,2.3-2.8,3.6-2.8
			c6.7,0,13.6,0,20.3,0c3.8,0,6.8,3.1,6.8,6.8l0,0c0,3.8-3.1,6.8-6.8,6.8h-9.9v3.4h5.2c3.2,0,5.7,2.5,5.7,5.7l0,0
			c0,3.2-2.5,5.7-5.7,5.7h-5.2v3.5H305.1z"/>
		<path class="st0" d="M362,270.4v10.4h8.1v-2.1h-5.7v-9.5h-1.2C362.6,269.2,362,269.7,362,270.4 M355.3,271.5l1.6,4.9h-3.2
			L355.3,271.5z M354.8,269.2c-0.6,0-0.9,0.2-1.2,0.7l-3.9,10.8h2.5l0.7-2.4h4.5l0.7,2.4h2.5l-4.2-11.7h-1.8V269.2z M341.7,270.4
			v0.8h3.5v9.6h2.4v-9.6h3.5v-2.1H343C342.2,269.2,341.7,269.7,341.7,270.4z M338.1,280.7h2.4v-11.7h-1.2c-0.8,0-1.2,0.4-1.2,1.3
			v10.4H338.1z M330.6,274.5v-3.4h2.4c1.2,0,1.7,0.5,1.7,1.7s-0.6,1.7-1.8,1.7H330.6z M337.1,272.8c0-2.4-1.3-3.8-3.8-3.8h-4
			c-0.6,0-1.2,0.6-1.2,1.3v10.4h2.4v-4.1h2.9C335.8,276.6,337.1,275.2,337.1,272.8z M322.4,278.9c-1.5,0-2.3-0.6-2.4-1.9h-2.3
			c0.1,2.5,1.6,3.8,4.7,3.8c2.9,0,4.5-1.2,4.6-3.4c0.1-1.5-0.5-2.4-1.9-2.8c-0.9-0.3-1.9-0.6-2.7-0.8c-1.5-0.3-2.3-0.8-2.3-1.6
			c0-0.8,0.6-1.4,1.9-1.4c1.1,0,1.7,0.3,2.1,0.9c0.2,0.4,0.5,0.7,1.1,0.7h1.4c-0.1-2.4-1.6-3.6-4.3-3.6c-2.8,0-4.3,1.2-4.4,3.7
			c0,1.6,1.2,2.6,3.4,3.2c0.8,0.2,1.6,0.4,2.3,0.6s1.1,0.6,1.1,1.2C324.7,278.5,323.9,278.9,322.4,278.9z M312.1,270.9v2.6h1.4
			c0.8,0,1.3,0.4,1.3,1.3v1.4h-2.6v1.4c0,0.8-0.4,1.3-1.3,1.3h-1.4v-2.6h-1.4c-0.8,0-1.3-0.4-1.3-1.3v-1.4h2.6v-1.4
			c0-0.8,0.4-1.3,1.3-1.3H312.1z M310.8,280.9c3.6,0,5.6-2.4,5.6-6s-2.1-6-5.6-6s-5.6,2.4-5.6,6
			C305.2,278.5,307.2,280.9,310.8,280.9z M294.6,270.4v10.4h2.4v-5.2h4.7v5.2h2.4v-11.7h-2.4v4.3H297v-4.3h-1.3
			C295.1,269.2,294.6,269.7,294.6,270.4z M279.8,270.4v10.4h8.1v-2.1h-5.7v-9.5H281C280.3,269.2,279.8,269.7,279.8,270.4z
			 M273,271.5l1.6,4.9h-3.2L273,271.5z M272.5,269.2c-0.6,0-0.9,0.2-1.2,0.7l-3.9,10.8h2.5l0.7-2.4h4.5l0.7,2.4h2.5l-4.2-11.7h-1.8
			V269.2z M254.7,270.4v10.4h2.2v-9.4l2.4,9.4h2.4l2.4-9.4v9.4h2.2v-11.7h-3.6l-2.3,8.8l-2.3-8.8h-2.3
			C255.2,269.2,254.7,269.7,254.7,270.4z M251.1,280.7h2.4v-11.7h-1.2c-0.8,0-1.2,0.4-1.2,1.3v10.4H251.1z M240.3,270.4v10.4h2.3v-8
			l4.7,8h2.5v-11.7h-2.3v8l-4.7-8h-1.3C240.8,269.2,240.3,269.7,240.3,270.4z M233.6,271.5l1.6,4.9H232L233.6,271.5z M232.9,269.2
			c-0.6,0-0.9,0.2-1.2,0.7l-3.9,10.8h2.5l0.7-2.4h4.5l0.7,2.4h2.5l-4.2-11.7h-1.8V269.2z"/>
	</g>
</g>
</svg>
